<svg id="Ebene_1" data-name="Ebene 1" xmlns="http://www.w3.org/2000/svg" width="5px" height="5px" viewBox="0 0 595.28 841.89"><defs><style>.cls-1{fill:#706f6f;}.cls-1,.cls-2{fill-rule:evenodd;}.cls-2{fill:#5aa67f;}.cls-3{fill:#3c3c3b;}</style></defs><path class="cls-1" d="M480.27,403.32c-.45-2.68-.91-5.35-1.41-8a39.6,39.6,0,0,0-35.8-23.25,39.14,39.14,0,0,0-30.16,14.32c-5,15.27-7.3,31.81-.36,46.87a5.14,5.14,0,0,1,.47,2.81l0,.08a19.2,19.2,0,0,0,2.65,4.94c1,1.13,2.1,2.23,3.21,3.33.53.53,1.08,1.15,1.65,1.79s1.42,1.18,2.15,1.76a38.61,38.61,0,0,0,20.35,5.8,39.15,39.15,0,0,0,30.35-14.55c2-4.84,4.31-9.57,5.62-14.63,1.66-6.43,1.46-13.2,1.83-19.81A3.71,3.71,0,0,1,480.27,403.32Z"/><path class="cls-2" d="M451.27,447.23c1.14-2.46,4.88-8.72,1.2-10.82s-2.65-3-4.88-5.47-1.32-2.83-1.5-3.49c-.48-2.05,2.17-5.35,2.35-5.65a5.55,5.55,0,0,0,0-2c0-.48-1.63-1.32-2.05-1.38s-.66.66-1.2.78-3-1.5-3.56-2-.84-1.39-1.62-2.05-.85-.18-2-.66-4.82-1.87-7.71-2.89-3.13-2.82-3.13-4-1.81-2.82-2.53-4-1-2.82-1.2-2.46,1.5,4.69,1.2,4.87-1-1.2-1.81-2.28.85-.55-1.8-5.72.84-7.82,1-10.52,2.29,1,1.14-.78,0-5.35-.84-6.68-5.3,1.51-5.3,1.51l0-.11c-.12.17-.24.33-.35.5a4.55,4.55,0,0,1-3.06,3.14c-4.75,20.73-2.38,40.25-1.14,48.15.11.69.27,1.65.47,2.82a.43.43,0,0,1,0,.07,19.2,19.2,0,0,0,2.65,4.94c1,1.13,2.1,2.23,3.21,3.33.53.53,1.08,1.15,1.65,1.79,2.23,1.92,4.65,3.66,7,5.45a41.84,41.84,0,0,0,23.85,2.14C450.36,453.31,450.18,449.4,451.27,447.23Z"/><path class="cls-2" d="M480.27,403.32c0-.34-.4-2.45-.88-5.16-.3-1.71-.62-3.43-1-5.13a5.36,5.36,0,0,1-.59-2l-.39-1.21a6.48,6.48,0,0,1-.23-1.2,49.51,49.51,0,0,0,0,5.79c-1.37-3.21-7.82-17.36-22.73-22.23a33.5,33.5,0,0,0-11.52-1.6l.12-.12a41.88,41.88,0,0,0-22.63,6.62c-.08.1-.15.21-.24.31-.27.28-.54.56-.79.85l-.34.4-.32.43-.55.77c-.14.22-.29.43-.43.64,1.3-1.27,4.13-2.88,6.27-4.43,2.83-2,4.69-.36,7,.3s2.47.55,1.69-.3.36-1,2.17-.78,2.29,2.47,5,2.17.3.54.66,1.32-.36.66-2.29,1.8.12,1.33,3.31,3.67,2.29-1.5,1.87-3.31,2.35-.36,2.35-.36c2,1.33,1.62.12,3,.48s5.48,3.85,5.48,3.85c-5,2.65-1.87,2.89-1,3.55s-1.68,1.8-1.68,1.8c-1-1-1.15.13-1.81.49s-.12,1.32-.12,1.32c-3.37.54-2.65,4.15-2.53,5s-2.29,2.16-2.83,3.49,1.51,3.85.36,4-2-4-7.89-2.47c-1.8.48-5.66,2.47-3.55,6.5s5.54-1.15,6.69-.55-.37,3.19-.12,3.31a3.58,3.58,0,0,1,3.37,3.67c.18,3.55,4.63,3.19,5.54,3.31s4.21-2.65,4.63-2.71,2.29-1.68,6.21.54,5.9,1.87,7.22,2.83.49,2.83,1.69,3.49,6.38-.18,7.71,1.86-5.3,12.57-7.35,13.71-2.89,3.85-5.06,5.53a73,73,0,0,1-7.65,5.48c-2.46,1.38-2.83,4-4,4.81a42.16,42.16,0,0,0,19.81-10.55c.05-.21.11-.41.18-.63,3.47-9.85,5.16-12.49,6.93-18A50.92,50.92,0,0,0,480.27,403.32ZM453,409.89c-.54.18-1.68,1.32-4.69-.48s-4.88-1.39-5.18-1.69c0,0-.3-.66,1-.84,2.65-.3,5.9,2.47,6.69,2.47s1.14-.78,2.46-.3S453.56,409.83,453,409.89ZM439.1,374.65c-.3-.18.18-.48.54-.84.19-.18.13-.66.31-.84.66-.67,3.67-1.51,3.13.18S439.58,375,439.1,374.65Zm7.41,5.35c-1.14-.12-3.49-.3-3.13-.84,1.81-1.68-.54-2.28-2.05-2.28s-2.05-1-1.32-1.15a10.85,10.85,0,0,1,4.21.48c.48.36,3.13,1.51,3.31,2.29S447.53,380,446.51,380Zm8.91-.3h-.06c-.84.54-5-2.46-5.72-3.13-3.37-2.88-5.36-1.86-6-2.46s-.48-1.14.66-2.05,4.16.37,6,.55,4,1.62,4,3.3C454.4,377.42,456.27,378.92,455.42,379.7Z"/><path class="cls-3" d="M241.73,368.36c-27.17,46.73-20.55,106.89,15.7,146.85,12.7,14.13,30.42,28.41,50.54,25.49,9.9-1.81,19.25-7.16,26.41-14A32.05,32.05,0,0,0,344.17,508a43.78,43.78,0,0,1,1.73-7.44,5.13,5.13,0,0,1,1.55-2.16,3.65,3.65,0,0,1,4.83.49,14.82,14.82,0,0,1,2.44,4.17c4.86,12.52,13.21,24.73,25.65,30.45,10,4.32,21.3,2.13,30.82-2.93l-.37,3.7c-12.32-10.71-27.31-23.88-39.34-34.77-4.32-3.92-8.67-7.82-13-11.79-.25-.2.1-.58.33-.39,18,13.73,37.24,29.21,54.87,43.5l2.55,2.06c-10.34,6.38-23.06,10.35-35,6.51-8.81-2.72-16-9.08-21.44-16.23a67,67,0,0,1-9.68-18.14,15.76,15.76,0,0,0-1.31-2.64h0l.07,0a.37.37,0,0,0,.14.07,1.86,1.86,0,0,0,.45.09,1.65,1.65,0,0,0,.93-.29c.28-.26.06-.09,0,.17a8.34,8.34,0,0,0-.37,1.05c-1.14,4.48-1.77,9.68-3.77,14.06-6.44,13.66-20.66,22.26-34.94,25.46-28,5.07-52.54-22.12-68-42.14-1.54-2.3-3.45-4.82-5-7.12a119.62,119.62,0,0,1-8.21-15.34l-2.23-5.37c-.49-1.62-2.32-6.61-2.69-8.3A118.23,118.23,0,0,1,223,410.14a111.81,111.81,0,0,1,18.27-42,.25.25,0,0,1,.35-.06.24.24,0,0,1,.07.32Z"/><path class="cls-3" d="M229.38,484.07A290.43,290.43,0,0,0,196,467.25c-4.3-1.7-8.84-3.83-13.41-3.45-9.49.83-16.49,8.92-21.73,16.39-6.08,10.85-10.61,22.67-15.3,34.21l-1.16,3-.73-3.17c-4-18.25-21.11-32.8-39.89-32.93A42.8,42.8,0,0,0,86.09,485l.35-4.6q19.71,13.35,38.91,27.45c4.25,3.16,8.49,6.35,12.67,9.61.24.16,0,.58-.28.41-18.47-10.36-36.44-21.57-54.22-33.06l-3.94-2.53,4.3-2.07A43,43,0,0,1,109,476.58c18.82,2.79,33.89,18.6,36.59,37.23l-1.89-.2q6.35-13.65,11.82-27.68a53.7,53.7,0,0,1,7.09-13.62,33,33,0,0,1,11.62-10.74c10.64-5.64,20.68.58,30.22,5.29a147.49,147.49,0,0,1,25.19,16.8.25.25,0,0,1-.29.41Z"/><path class="cls-3" d="M342.34,445.23C340,451.29,340.39,459,346,463.07a13.07,13.07,0,0,0,6.31,2.81,2.85,2.85,0,0,0,1.68-.21c.37-.25.38-.53.43-1,.08-3-1.85-5.94-1-9.25,1.62-4.77,7.62-1.71,10.38-.14,3.07,1.7,5.93,3.37,8.94,4.87a115.77,115.77,0,0,0,18.68,7.35l-3,1.89a26.49,26.49,0,0,0-12.9-27,38,38,0,0,0-31.6-3.7l-1.65.52c-4.37-14.37-12.91-28.75-26.45-36.08a90.06,90.06,0,0,0-21.06-6.77c-7.32-1-14.92-1.26-22.34-1.62-21.7-.86-45.83-1.2-67.68-1.78-15-.55-30.08-1.58-45.14-1.92-11.34-.43-22.66-.59-34-2.07-1.62-.33-3.58-.37-5-1.53a1.92,1.92,0,0,1-.37-2.31,1.6,1.6,0,0,1,.25-.37,2.55,2.55,0,0,1,.71-.57c2.16-1.06,4.39-1.29,6.64-1.79,14.85-2.73,29.71-4.82,44.38-8.36,7.39-1.62,14.57-3.67,22-5.34,14.83-3.25,30.45-4.29,45.25-.29a.28.28,0,0,1-.08.55c-3.78,0-7.52-.12-11.26,0-11.18.32-22.34.45-33.34,2.61-14.47,3-29.76,6.17-44.22,9.21-7.36,1.57-14.77,3.05-22.06,4.7a33,33,0,0,0-5.56,1.62s0,0,0,0a.92.92,0,0,0,.14-.14.94.94,0,0,0,.15-.23,1.3,1.3,0,0,0,.15-.44,1.43,1.43,0,0,0-.55-1.39l.12,0c4.59,1.06,9.45,1.06,14.21,1.47,15,.86,30,1.62,45.06,1.82,29.67,0,60.71,1.46,90.31,3.16,11.38.77,22.87,1.24,33.7,5.27,11.47,3.38,20.49,10.4,27.55,19.86a81.46,81.46,0,0,1,11.1,20.08l-2.14-1a42.92,42.92,0,0,1,17.82-2.76c21.43,1.75,36.69,18,32,40a119.31,119.31,0,0,1-21.79-9c-3.07-1.62-6-3.55-8.87-5.28-1.77-1-3.46-2.2-5.22-2.19,0,0,0,0-.1.11a2.82,2.82,0,0,0-.1.73c-.05,2.24,1.12,5.15.82,7.76-1.13,6.7-9.65,2.81-12.71-.21-5.78-4.79-6-13.45-2.75-19.71a.27.27,0,0,1,.37-.13.28.28,0,0,1,.13.36Z"/><path class="cls-3" d="M279.28,275.59A76.74,76.74,0,0,0,239,277.37c-9.07,2.78-18.29,6.68-24.92,13.37-13.46,13.13-15,34.93-6.72,51.35,5.68,11.09,16.84,17.37,27.41,23.28,13.58,7.48,29.18,11.81,44.65,10.58,14.15-1.19,31.37-7,41.85-16.55,26.42-24.73-11.47-57-32.05-70.88a109.84,109.84,0,0,0-21-10.47.24.24,0,0,1-.14-.32.25.25,0,0,1,.29-.16c15.54,3.86,29.64,12.15,41.86,22.36,16.93,13.78,35.62,37.63,18.94,58.72-11,13.79-35.44,21.56-52.57,21.36-13.05-.19-25.94-4.24-37.42-10.3-5.29-2.74-10.34-5.88-15.39-9-6.77-4.26-13.14-9.42-17.47-16.27a42.8,42.8,0,0,1-5.13-11c-3.83-11.67-3.68-25,2.28-35.94s17.05-18.36,28.75-21.94a77.8,77.8,0,0,1,23.67-4.27,69.39,69.39,0,0,1,23.55,3.82.25.25,0,0,1-.14.48Z"/><path class="cls-3" d="M220,306.62c3.86,7.44,8.46,14.78,15.81,19.07a78.2,78.2,0,0,0,7.13,3.84,31.6,31.6,0,0,0,16.2,2.67,16.54,16.54,0,0,0,7.55-2.26,9.35,9.35,0,0,0,2.83-2.7,12.22,12.22,0,0,0,1.62-3.8.35.35,0,0,1,.69.08,10.55,10.55,0,0,1-3.67,8.34c-4.93,4.24-11.72,4.2-17.75,3.54-6-.86-12.38-1.87-17.32-5.72-7.17-5.55-12.61-13.82-13.76-22.86a.36.36,0,0,1,.67-.2Z"/><path class="cls-3" d="M246.47,287.39a4.59,4.59,0,0,1-.38,3.38,5.35,5.35,0,0,1-1,.81,19.07,19.07,0,0,0-1.91,1.79c-.26.35-.38.86-.7,1.15a2.29,2.29,0,0,1-1.4.42,5.54,5.54,0,0,1-2.13-.34.55.55,0,0,1-.35-.36c-.34-1.38-.47-2.54.24-3.53.31-.31.82-.4,1.19-.64a8.1,8.1,0,0,0,1-.89l.91-.94a5.35,5.35,0,0,1,.86-1,4.64,4.64,0,0,1,3.39-.23.45.45,0,0,1,.34.36Z"/><path class="cls-3" d="M262.94,294.57c.37,1.36.65,2.72-.05,3.78a12.57,12.57,0,0,1-2.08,2.22c.1,2.08-2.34,2.3-4,2a.55.55,0,0,1-.39-.3c-.78-1.59-1-4,.87-4.42.83-1.32,1.35-3,3.07-3.37a6.69,6.69,0,0,1,2.21-.21.44.44,0,0,1,.39.3Z"/><path class="cls-3" d="M335.76,345.41c20.09-8.1,40.7-14.8,61.31-21.44,11.92-4.05,25-8.54,36.84-12.72l3-1.08.05,3.32a387.62,387.62,0,0,1-2.1,57.81.25.25,0,0,1-.5,0c-.62-4.81-1-9.63-1.36-14.45a407.28,407.28,0,0,1-.75-43.36l3.11,2.23c-8.26,2.61-16.48,5.33-24.72,8-7.26,2.41-17.5,5.76-24.61,8.32-12.23,4.38-24.59,8.37-37.05,12.08q-6.21,1.88-12.49,3.59a1.23,1.23,0,0,1-.78-2.32Z"/><path class="cls-3" d="M138.88,415.05c0-.74,0-1.25.51-1.51l.89-.38,1.78-.75c13.09-5.36,26.68-9.4,40.17-13.59,8.52-2.77,20.54-7.22,29.09-10.27,14.5-5.28,29.14-10.11,44.11-14a1.5,1.5,0,0,1,1.84,1.08,1.52,1.52,0,0,1-.88,1.77c-28.31,12.07-58.8,19.13-87.49,30.12-9.1,3.12-18.27,6.28-27.61,8.62l-.94.24c-.55.09-.86-.31-1.31-.9a.76.76,0,0,1-.16-.47Z"/><path class="cls-3" d="M469.07,393.05c-6.09-20-25.78-27.11-43.25-15.64-7.14,4.68-10.74,12.84-12.85,20.85-4,13.59-1.62,29,5.61,41.08,6.87,11.54,22.76,17.17,35.25,13,17.6-6.39,24.89-27.15,23.29-44.62a2.42,2.42,0,0,1,4.65-1.08c3.56,9.15,7.1,18.31,10.52,27.54.45,1.35,1.57,4.24,1.95,5.65l.06.26a2.89,2.89,0,0,1,.06.45c.33-.16-.6,2.66-1.78,2.58a2.81,2.81,0,0,1-2.66-.69,8.79,8.79,0,0,1-1.09-1.85c-11.23-24.8-17.63-52-17.72-79.22a1.13,1.13,0,0,1,2.25-.08,221.78,221.78,0,0,0,20.05,77.05l.38.73.07.13,0,0a1.65,1.65,0,0,0-.25-.31,2.73,2.73,0,0,0-2.62-.66c-1.16-.1-2.09,2.7-1.76,2.53a1.74,1.74,0,0,0,.05.37c-.35-1.07-1.44-4.07-1.86-5.2l-10.17-27.57,4.66-1c1,14.66-3.24,30.42-14.12,40.82A34,34,0,0,1,455,456c-14.34,4.45-31.24-2.31-39.43-14.67-8.19-13-11.31-29.43-7.09-44.33,2.34-9.05,6.85-18,15.1-23,13.25-8.24,30.65-7.38,40.26,5.82a32.08,32.08,0,0,1,5.7,13.19.25.25,0,0,1-.49.11Z"/></svg>