<svg xmlns="http://www.w3.org/2000/svg" viewBox="0 0 595.28 841.89"><defs><style>.cls-1{fill:#5aa67f;stroke:#3c3c3b;stroke-miterlimit:10;stroke-width:0.75px;fill-rule:evenodd;}.cls-2{font-size:48px;font-family:Chalkboard;letter-spacing:-0.18em;}.cls-13,.cls-2{fill:#3c3c3b;}.cls-3{letter-spacing:-0.16em;}.cls-4{letter-spacing:-0.1em;}.cls-5{letter-spacing:-0.11em;}.cls-6{letter-spacing:-0.1em;}.cls-7{letter-spacing:-0.14em;}.cls-8{letter-spacing:-0.1em;}.cls-9{letter-spacing:-0.14em;}.cls-10{letter-spacing:-0.1em;}.cls-11{letter-spacing:-0.12em;}.cls-12{letter-spacing:-0.11em;}</style></defs><g id="Ebene_2" data-name="Ebene 2"><path class="cls-1" d="M378,398.05c-7.39,0-13.4,6.5-13.4,14.5s6,14.5,13.4,14.5a12.71,12.71,0,0,0,2.64-.29c-.33-.17-.39-1.52,0-2.26s1.55-3,.38-3.73-.84-1-1.55-1.89-.42-1-.48-1.2c-.15-.7.69-1.84.75-1.94a2,2,0,0,0,0-.69c0-.16-.52-.45-.65-.47s-.21.22-.39.27-.95-.52-1.12-.69-.27-.47-.52-.7-.27-.06-.63-.23-1.53-.64-2.45-1a1.38,1.38,0,0,1-1-1.37c0-.42-.57-1-.8-1.39s-.3-1-.38-.85.48,1.62.38,1.68-.3-.42-.57-.79.27-.18-.58-2,.27-2.69.33-3.62.73.35.36-.27,0-1.84-.27-2.3-1.68.52-1.68.52c0-.46,1.32-1.2,2.22-1.91s1.49-.12,2.22.11.78.18.53-.11.12-.35.69-.27.73.85,1.59.75.1.19.21.45-.11.23-.73.63,0,.45,1.06,1.26.72-.52.59-1.14.75-.12.75-.12c.63.45.51,0,.95.16a9.58,9.58,0,0,1,1.74,1.33c-1.58.91-.59,1-.32,1.22s-.54.62-.54.62c-.32-.35-.36,0-.57.17s0,.45,0,.45c-1.07.19-.84,1.43-.8,1.72s-.73.75-.9,1.2.48,1.33.11,1.37-.65-1.37-2.5-.85a1.55,1.55,0,0,0-1.13,2.24c.69,1.43,1.76-.4,2.12-.19s-.11,1.1,0,1.14a1.17,1.17,0,0,1,1.07,1.26c.06,1.23,1.48,1.1,1.76,1.14s1.34-.91,1.48-.93.72-.58,2,.19,1.87.64,2.29,1,.16,1,.54,1.2,2-.06,2.45.65-1.69,4.32-2.34,4.72-.91,1.32-1.6,1.9a23.85,23.85,0,0,1-2.43,1.89c-.79.47-.9,1.37-1.27,1.66,6-1.45,10.49-7.25,10.49-14.17,0-8-6-14.5-13.39-14.5Zm3.13,13.58c-.17.07-.53.46-1.49-.16a4,4,0,0,0-1.64-.58s-.1-.23.32-.29c.84-.1,1.88.85,2.12.85s.37-.27.79-.11S381.33,411.61,381.14,411.63Zm-4.4-12.13c-.09-.07.06-.17.17-.29s0-.23.1-.29c.21-.23,1.17-.52,1,.06A1.15,1.15,0,0,1,376.74,399.5Zm2.36,1.84c-.37,0-1.11-.1-1-.29.57-.58-.17-.79-.65-.79s-.65-.33-.42-.39a3.3,3.3,0,0,1,1.34.16c.15.13,1,.52,1.05.79S379.42,401.34,379.1,401.34Zm2.81-.1c-.27.18-1.59-.85-1.82-1.08-1.07-1-1.7-.64-1.91-.85s-.16-.39.21-.7,1.32.12,1.91.18,1.26.56,1.26,1.14.63,1,.37,1.31Z"/><text class="cls-2" transform="translate(112.82 426.87)">T<tspan class="cls-3" x="18.79" y="0">r</tspan><tspan class="cls-4" x="31.91" y="0">a</tspan><tspan class="cls-5" x="52.72" y="0">v</tspan><tspan class="cls-6" x="69.97" y="0">el </tspan><tspan class="cls-7" x="113.88" y="0">l</tspan><tspan class="cls-8" x="121.48" y="0">i</tspan><tspan class="cls-9" x="128.77" y="0">k</tspan><tspan class="cls-10" x="147.61" y="0" xml:space="preserve">e         </tspan><tspan class="cls-11" x="290.97" y="0">p</tspan><tspan class="cls-12" x="310.51" y="0">r</tspan><tspan class="cls-10" x="326.12" y="0">o</tspan></text><path class="cls-13" d="M300.89,377.56A67.21,67.21,0,0,0,296.7,394a64.34,64.34,0,0,0,5.17,32.35c4.11,8.67,14.23,21.25,25,16.63,4.43-2.19,8.54-5.69,9.19-10.8.28-1.48.24-3.05,1.19-4.57a3.39,3.39,0,0,1,3.7-1.43A4.5,4.5,0,0,1,343.7,429a25.24,25.24,0,0,0,5.56,9.07c3.33,3.54,8,3.78,12.31,1.42l-.43,4.33c-4.65-4.68-9.24-9.44-13.63-14.38q-2.2-2.46-4.32-5a.31.31,0,0,1,.4-.45c7.35,4.89,14.31,10.32,21.16,15.85l2.8,2.27-3.23,2.06c-11.91,7.8-22.59-.76-26.18-12.72l-.1-.25s0,0,0,0a2.44,2.44,0,0,0,1.3.85,2.55,2.55,0,0,0,2.94-1.23c-.65,2.28-1,5.14-2.43,7.38-4.23,6.94-13.55,11.24-21.28,8-7.09-3-11.93-8.93-16.76-14.6s-8.7-12.64-9.91-20.17c-2-11.83.69-24.91,8.46-34.14a.31.31,0,0,1,.52.31Z"/><path class="cls-13" d="M303.45,433.37c-3.22-1-6.18-2.2-9.14-3.28-3.41-1.1-6.46-3-8.3-1.85-5.17,3-10.49,7.25-12.56,13.08l-1.15-1.39a30.83,30.83,0,0,0-12.48-8.24c-4.42-1.18-9.09,0-13.37,1.67l.27-5.06c2.21,1.7,4.4,3.46,6.49,5.35,8.58,7.89,8.34,8-2.19,3.36-3.89-1.73-8.06-4.12-11.81-6.16l4.56-2.71c13-7.44,23.49-1.39,30.21,10.6l-1.77.15c.5-.84,1-1.44,1.47-2.13,1.43-1.94,2.92-4.06,4.17-6.12,3.42-5.53,6.92-10.55,14-7a33.2,33.2,0,0,1,11.91,9.19.32.32,0,0,1-.35.5Z"/><path class="cls-13" d="M334.12,402.82c-.59,2.07-.34,4.58,1.56,5.76a3.89,3.89,0,0,0,1.91.71c.15,0,.27-.07.1,0a.58.58,0,0,0-.26.21c-.06.09-.07.11-.07.09a18.15,18.15,0,0,1-.57-2.55,2.5,2.5,0,0,1,1-2.2c1.4-1,3.22-.07,4.36.49a44.43,44.43,0,0,0,9.68,3.91l-3,1.88c.63-5.12-3.78-9.36-8.6-10.19a15.85,15.85,0,0,0-6.85.59c-2.29-9.82-9.28-15.37-20.91-15.25-9.48-.37-19.06-.11-28.51-1.21-6-.31-12,.08-17.95-.7-1.09-.16-2.21-.31-3.3-.58a2.49,2.49,0,0,1-1.27-.68,1.54,1.54,0,0,1,.38-2.3,6.5,6.5,0,0,1,1.77-.6c3-.58,5.9-1.43,8.82-2.15,3.52-.7,7.09-1.17,10.65-1.68l7.12-1a17.11,17.11,0,0,1,7.23,0,.29.29,0,0,1,.07.54A26.74,26.74,0,0,1,294,377.3c-2.43.36-8.07,1.25-10.57,1.6-4.72.59-9.29,2.05-14,2.55a22.83,22.83,0,0,0-6.08,1.67,1.32,1.32,0,0,0-.07-2.17c6.79-.07,14,.48,20.75.6a120.36,120.36,0,0,1,14.34,0c7.29.5,14.48.68,21.68,2.43,7.73,2,12.48,8.47,15.54,15.47l.08.44-1.82-1.29c6.41-2.85,15.53-1,18.72,5.78,1.61,3.24,1.06,6.86.37,10.18a46.5,46.5,0,0,1-9.49-4.05c-1.39-.81-3.23-2.08-4.29-2.74a1,1,0,0,0,.48-.2A.88.88,0,0,0,340,407a.14.14,0,0,0,0-.09v0c-.11.59.34,1.92.16,2.85a2.33,2.33,0,0,1-2.89,2,6,6,0,0,1-4.65-5.47,7.14,7.14,0,0,1,1-3.75.28.28,0,0,1,.38-.1.26.26,0,0,1,.12.33Z"/><path class="cls-13" d="M311.35,342.57c-7.73-1-16.62.88-22.36,6.22-4.46,4.57-5.18,12.1-2.26,17.76,2,3.68,5.73,5.71,9.36,7.63a26.94,26.94,0,0,0,23.26,1c3.33-1.4,6.87-3.42,8.47-6.72,3.62-7.7-7.55-16.78-13.15-20.95a44,44,0,0,0-7.25-4,.2.2,0,0,1,.12-.38c9.19,1.6,20.13,8.78,24.19,17.39,4.68,10.72-6.09,17.71-15.31,19.41-7.3,1.65-14.78-.81-21-4.53-3.61-2.18-7.63-4.31-10.1-7.95-6.77-10-2.91-22.3,9-25.6a24.21,24.21,0,0,1,17.08.36.21.21,0,0,1-.11.39Z"/><path class="cls-13" d="M290.61,353.5a29.46,29.46,0,0,0,3.61,4.69,19.12,19.12,0,0,0,7.34,3.91c2.59.31,6,.43,7-2.61.7-.73.4,1.42.22,1.73-1.18,3-4.84,3.31-7.55,2.94-2.2-.29-4.64-.46-6.43-2-2.54-2.11-4.6-5.24-4.63-8.58a.22.22,0,0,1,.4-.12Z"/><path class="cls-13" d="M300,346.74c.27.72.61,1.55-.15,1.86l-.36.29c-.44.31-.3.49-.51.81-.51.21-1-.08-1.66-.4a2.39,2.39,0,0,1-.58-1.28.74.74,0,0,1,.06-.61c.33-.2.49-.05.82-.48l.32-.34c.09-.12.14-.29.28-.37a2,2,0,0,1,1.78.52Z"/><path class="cls-13" d="M305.81,349.28c.3.59.67,1.21.42,1.68a2.57,2.57,0,0,1-.79.75c.41,1-1.41.78-2.05.23-.54-.76-1.05-1.91-.06-1.85a2.65,2.65,0,0,1,.52-1c.08-.16.34-.19.63-.19s1,0,1.33.34Z"/><path class="cls-13" d="M331.34,367.72c11-5.86,23-9.2,34.57-13.71l2.75-1.07a72.62,72.62,0,0,0,3,21.49c.76,3,1.47,6,2.29,9.1s1.72,6.1,2.53,9.33a.26.26,0,0,1-.19.31.28.28,0,0,1-.25-.07,36.47,36.47,0,0,1-5.79-8.1c-4.94-8.78-5.61-19.16-5.67-29l2.82,2c-2.93,1-5.85,2.06-8.74,3.18A172.91,172.91,0,0,1,332.19,370a1.24,1.24,0,0,1-.85-2.3Z"/><path class="cls-13" d="M261.67,391.92c0-.23-.2-.92,0-1.07l.3-.16c6.26-3.44,13.48-4.32,20-7.05,6.81-2.7,13.59-5.46,20.89-6.61a1.22,1.22,0,0,1,.76,2.28c-6.51,3.48-13.58,5.38-20.64,7.34-6.21,1.59-11.9,4.71-18.18,6.08-.59.12-1.78.34-2.38.43-.11.06-.34-.31-.41-.41a3.24,3.24,0,0,1-.37-.83Z"/><path class="cls-13" d="M387.55,400.41c-4.15-7.85-15.65-8.68-19.72-.51a27.78,27.78,0,0,0-1.67,4.66c-1.53,5.94-.41,14.14,5,17.88,2.81,1.59,6.37,2.32,9.17,1.23,6.15-2.3,8.87-9.77,8.39-16a2.4,2.4,0,0,1,4.68-.9l2,5.43,1.91,5.49c.21.66.64,1.88.78,2.57a2.59,2.59,0,0,1-4.86,1.6,71.62,71.62,0,0,1-5.37-20.73,62.05,62.05,0,0,1-.13-11.8,1.12,1.12,0,0,1,2.24,0,100.64,100.64,0,0,0,4.69,22.08c.92,2.7,1.93,5.47,3.1,8a2.57,2.57,0,0,0-4.74,1.71c-1-3-3-9.33-4.15-12.79l4.67-.9c.61,13.37-10.78,25.86-24.08,17.79-5.4-3.25-7.75-9.68-8.32-15.66a21.07,21.07,0,0,1,1.4-9,14.72,14.72,0,0,1,5.72-7.55c5.38-3.52,13-2.77,17.09,2.09a12.55,12.55,0,0,1,2.67,5.12.26.26,0,0,1-.47.18Z"/><text/></g></svg>