<svg xmlns="http://www.w3.org/2000/svg" viewBox="0 0 595.28 841.89"><defs><style>.cls-1{fill:#5aa67f;stroke:#3c3c3b;stroke-miterlimit:10;stroke-width:0.75px;fill-rule:evenodd;}.cls-2{font-size:48px;font-family:Chalkboard;letter-spacing:-0.14em;}.cls-12,.cls-2{fill:#3c3c3b;}.cls-3{letter-spacing:-0.13em;}.cls-4{letter-spacing:-0.06em;}.cls-5{letter-spacing:-0.07em;}.cls-6{letter-spacing:-0.06em;}.cls-7{letter-spacing:-0.1em;}.cls-8{letter-spacing:-0.06em;}.cls-9{letter-spacing:-0.1em;}.cls-10{letter-spacing:-0.08em;}.cls-11{letter-spacing:-0.07em;}</style></defs><g id="Ebene_2" data-name="Ebene 2"><path class="cls-1" d="M378,398.05c-7.39,0-13.4,6.5-13.4,14.5s6,14.5,13.4,14.5a12.71,12.71,0,0,0,2.64-.29c-.33-.17-.39-1.52,0-2.26s1.55-3,.38-3.73-.84-1-1.55-1.89-.42-1-.48-1.2c-.15-.7.69-1.84.75-1.94a2,2,0,0,0,0-.69c0-.16-.52-.45-.65-.47s-.21.22-.39.27-.95-.52-1.12-.69-.27-.47-.52-.7-.27-.06-.63-.23-1.53-.64-2.45-1a1.38,1.38,0,0,1-1-1.37c0-.42-.57-1-.8-1.39s-.3-1-.38-.85.48,1.62.38,1.68-.3-.42-.57-.79.27-.18-.58-2,.27-2.69.33-3.62.73.35.36-.27,0-1.84-.27-2.3-1.68.52-1.68.52c0-.46,1.32-1.2,2.22-1.91s1.49-.12,2.22.11.78.18.53-.11.12-.35.69-.27.73.85,1.59.75.1.19.21.45-.11.23-.73.63,0,.45,1.06,1.26.72-.52.59-1.14.75-.12.75-.12c.63.45.51,0,.95.16a9.58,9.58,0,0,1,1.74,1.33c-1.58.91-.59,1-.32,1.22s-.54.62-.54.62c-.32-.35-.36,0-.57.17s0,.45,0,.45c-1.07.19-.84,1.43-.8,1.72s-.73.75-.9,1.2.48,1.33.11,1.37-.65-1.37-2.5-.85a1.55,1.55,0,0,0-1.13,2.24c.69,1.43,1.76-.4,2.12-.19s-.11,1.1,0,1.14a1.17,1.17,0,0,1,1.07,1.26c.06,1.23,1.48,1.1,1.76,1.14s1.34-.91,1.48-.93.72-.58,2,.19,1.87.64,2.29,1,.16,1,.54,1.2,2-.06,2.45.65-1.69,4.32-2.34,4.72-.91,1.32-1.6,1.9a23.85,23.85,0,0,1-2.43,1.89c-.79.47-.9,1.37-1.27,1.66,6-1.45,10.49-7.25,10.49-14.17,0-8-6-14.5-13.39-14.5Zm3.13,13.58c-.17.07-.53.46-1.49-.16a4,4,0,0,0-1.64-.58s-.1-.23.32-.29c.84-.1,1.88.85,2.12.85s.37-.27.79-.11S381.33,411.61,381.14,411.63Zm-4.4-12.13c-.09-.07.06-.17.17-.29s0-.23.1-.29c.21-.23,1.17-.52,1,.06A1.15,1.15,0,0,1,376.74,399.5Zm2.36,1.84c-.37,0-1.11-.1-1-.29.57-.58-.17-.79-.65-.79s-.65-.33-.42-.39a3.3,3.3,0,0,1,1.34.16c.15.13,1,.52,1.05.79S379.42,401.34,379.1,401.34Zm2.81-.1c-.27.18-1.59-.85-1.82-1.08-1.07-1-1.7-.64-1.91-.85s-.16-.39.21-.7,1.32.12,1.91.18,1.26.56,1.26,1.14.63,1,.37,1.31Z"/><text class="cls-2" transform="translate(94.82 426.87)">T<tspan class="cls-3" x="20.66" y="0">r</tspan><tspan class="cls-4" x="35.65" y="0">a</tspan><tspan class="cls-5" x="58.33" y="0">v</tspan><tspan class="cls-6" x="77.46" y="0">el </tspan><tspan class="cls-7" x="126.99" y="0">l</tspan><tspan class="cls-8" x="136.46" y="0">i</tspan><tspan class="cls-9" x="145.61" y="0">k</tspan><tspan class="cls-6" x="166.33" y="0" xml:space="preserve">e        </tspan><tspan class="cls-10" x="312.9" y="0">p</tspan><tspan class="cls-11" x="334.3" y="0">r</tspan><tspan class="cls-8" x="351.78" y="0">o</tspan></text><path class="cls-12" d="M300.8,377.51a57.11,57.11,0,0,0,.61,49.13c4.56,8.68,14.61,21.31,25.67,17,6.08-2.7,9.84-7.08,10.29-13.42a4.63,4.63,0,0,1,1-2.35,2.5,2.5,0,0,1,4.07.87c3.37,8.7,9.48,17.13,19.6,11.51l-.29,2.88c-4.72-4.59-9.42-9.22-14-14-6.35-6.54-6-6.66,1-1.12,5.86,4.51,11.56,9.25,17.21,14l-2.14,1.32c-11.41,7.31-21.29-1-24.78-12.35l-.15-.33c0-.08-.08-.12.07,0a1.61,1.61,0,0,0,1.89.16,1.28,1.28,0,0,0,.48-.47,2.8,2.8,0,0,0-.2.65,21.26,21.26,0,0,1-2.11,6.7c-4,6.65-12.86,11-20.35,8.06-7-2.85-11.95-8.71-16.54-14.44a43.53,43.53,0,0,1-9.36-20.09c-2-11.68.47-24.43,7.65-33.92a.2.2,0,0,1,.34.2Z"/><path class="cls-12" d="M303.48,433.32c-4.61-1.72-8.87-3.61-13.38-5.24a6.63,6.63,0,0,0-3.58-.56c-5.43,3-10.68,7.65-13.18,13.42l-.9-1.11A31,31,0,0,0,260,431.24c-4.61-1.32-9.37-.09-13.76,1.68l.21-4.21a124.86,124.86,0,0,1,9.77,8c1,1,2.07,1.93,3.05,3,.2.18,0,.51-.27.42a109.08,109.08,0,0,1-15.21-7.32l-3.61-2,3.83-2.25c12.67-7.23,23.07-1.33,29.84,10.26l-1.47.13c.95-1.55,1.92-2.76,2.88-4.11,2.84-3.7,4.81-8.25,8.77-11,4-2.52,8.64.59,12.13,2.61a33.93,33.93,0,0,1,7.62,6.42.26.26,0,0,1-.29.41Z"/><path class="cls-12" d="M334.07,402.8c-.66,2.09-.47,4.69,1.47,5.94a3.42,3.42,0,0,0,2.28.76c-.1,0-.19.21-.18.08-.11-.85-.43-1.42-.53-2.58a2.09,2.09,0,0,1,2-2.29,6.48,6.48,0,0,1,2.84.9,44.12,44.12,0,0,0,9.72,4.05l-2.4,1.5c1-7.65-7.91-12.44-14.61-10.26l-1.09.29-.36-1.32,0,.35a18.47,18.47,0,0,0-13.91-13.59c-6.84-1.22-14.13-.87-21.12-1.16-4.78,0-9.53-.45-14.29-.78s-9.55-.09-14.33-.38a49.57,49.57,0,0,1-6.87-.84,3.08,3.08,0,0,1-.76-.29l-.18-.12a1.25,1.25,0,0,1-.32-1.57.93.93,0,0,1,.14-.2A1.53,1.53,0,0,1,262,381c2.23-1,4.69-1.12,7-1.83,7.91-2.08,16.71-2.86,24.8-4.07a31.93,31.93,0,0,1,3.64.24.23.23,0,0,1,.07.44,21.54,21.54,0,0,1-7,1.81l-7.05,1c-4.72.61-9.32,1.94-14,2.54a26.38,26.38,0,0,0-6.16,1.69,1,1,0,0,0,.31-1.23,1.18,1.18,0,0,0-.38-.46c-.18-.09,0,0,.09,0,1.71.2,4.73.15,6.5.21,4.75.11,9.51.48,14.29.52A200.74,200.74,0,0,1,312.71,383c6.05.46,12.7,2.16,16.84,7a31.84,31.84,0,0,1,5.85,9.81l-1.45-1a15.3,15.3,0,0,1,9.95-.68A11.61,11.61,0,0,1,353,411.73l-.38,2.19a45,45,0,0,1-9-3.79c-1.5-.8-3-2-4.41-2.68-.06,0-.11,0-.08,0a.84.84,0,0,0,.3-.13.57.57,0,0,0,.23-.34,7.51,7.51,0,0,0,.16,1.64c.56,4-3.37,3.53-5.38,1.42-2.11-1.87-2.11-5.12-.8-7.38.11-.25.52-.06.4.18Z"/><path class="cls-12" d="M311.36,342.52c-8.27-1.47-20.67,1.18-24.94,9-3,5.74-2.26,13.74,2.64,18.3a34.26,34.26,0,0,0,6.95,4.51c9.4,5.22,22,4.39,30.14-2.75,8.82-8.54-4.45-19.37-11.35-24.29a40.52,40.52,0,0,0-7.36-3.85.15.15,0,0,1,.09-.29c9,1.86,19.77,9,23.71,17.54,4.51,10.39-6.05,17.06-14.92,18.78-7.2,1.67-14.63-.61-20.8-4.25a50.9,50.9,0,0,1-7.11-4.67c-6.79-5.71-8.41-17.55-1.62-24,6.35-5.8,16.7-7.41,24.65-4.36a.15.15,0,0,1-.08.29Z"/><path class="cls-12" d="M290.61,353.5a29.46,29.46,0,0,0,3.61,4.69,19.12,19.12,0,0,0,7.34,3.91c2.59.31,6,.43,7-2.61.7-.73.4,1.42.22,1.73-1.18,3-4.84,3.31-7.55,2.94-2.2-.29-4.64-.46-6.43-2-2.54-2.11-4.6-5.24-4.63-8.58a.22.22,0,0,1,.4-.12Z"/><path class="cls-12" d="M300,346.74c.27.72.61,1.55-.15,1.86l-.36.29c-.44.31-.3.49-.51.81-.51.21-1-.08-1.66-.4a2.39,2.39,0,0,1-.58-1.28.74.74,0,0,1,.06-.61c.33-.2.49-.05.82-.48l.32-.34c.09-.12.14-.29.28-.37a2,2,0,0,1,1.78.52Z"/><path class="cls-12" d="M305.81,349.28c.3.59.67,1.21.42,1.68a2.57,2.57,0,0,1-.79.75c.41,1-1.41.78-2.05.23-.54-.76-1.05-1.91-.06-1.85a2.65,2.65,0,0,1,.52-1c.08-.16.34-.19.63-.19s1,0,1.33.34Z"/><path class="cls-12" d="M331.42,368c5.6-2.69,11.33-5.07,17.14-7.25,5.2-1.75,12.45-4.34,17.49-6.31l2.22-.82a73,73,0,0,0,2.84,21c.77,3,1.53,6.08,2.43,9.11s1.89,6.07,2.85,9.21a.2.2,0,0,1-.13.26.22.22,0,0,1-.21-.06,40,40,0,0,1-5.47-8.22C365.91,376,365,365.8,365,356l2.25,1.57c-8.45,2.89-17.62,7-26.17,9.61-3,.93-5.92,1.86-8.94,2.64a1,1,0,0,1-.68-1.84Z"/><path class="cls-12" d="M261.67,391.92c0-.23-.2-.92,0-1.07l.3-.16c6.26-3.44,13.48-4.32,20-7.05,6.81-2.7,13.59-5.46,20.89-6.61a1.22,1.22,0,0,1,.76,2.28c-6.51,3.48-13.58,5.38-20.64,7.34-6.21,1.59-11.9,4.71-18.18,6.08-.59.12-1.78.34-2.38.43-.11.06-.34-.31-.41-.41a3.24,3.24,0,0,1-.37-.83Z"/><path class="cls-12" d="M388.33,400.1a13.53,13.53,0,0,0-3.5-4,11.26,11.26,0,0,0-4.62-2.07A11.38,11.38,0,0,0,371,396.3c-2.52,2-3.57,5.15-4.41,8.54a19.35,19.35,0,0,0,.37,10c.93,3.31,2.62,6.38,5.5,8.07s6.58,2.2,9.5,1a12.74,12.74,0,0,0,6.7-6.8,19.74,19.74,0,0,0,1.53-9.86,1.92,1.92,0,0,1,3.7-.89l0,.05c1.43,3.58,2.84,7.16,4.2,10.79.17.46.33.92.49,1.39l.25.77.06.19,0,.13a2.21,2.21,0,0,1,0,.8,2,2,0,0,1-.54,1.05,1.84,1.84,0,0,1-.74.5,1.49,1.49,0,0,1-.25.07,2.19,2.19,0,0,1-1.46-.21,2.14,2.14,0,0,1-.58-.46l-.19-.23-.08-.14L395,421c-.09-.16-.16-.3-.21-.41-.45-1-.82-1.85-1.2-2.77-.75-1.84-1.38-3.7-2-5.58A75.1,75.1,0,0,1,389,400.73a65.79,65.79,0,0,1-.65-11.72.9.9,0,0,1,1.79-.07,97.71,97.71,0,0,0,1.92,11.22A99.25,99.25,0,0,0,395.28,411c.64,1.77,1.35,3.52,2.07,5.25.36.86.75,1.73,1.14,2.51l.12.24,0,0-.07-.12a2.62,2.62,0,0,0-.17-.21,1.79,1.79,0,0,0-.56-.42,2,2,0,0,0-1.4-.14l-.24.09a2,2,0,0,0-1.28,1.51,2.11,2.11,0,0,0,0,.78v0s0,.05,0,0l-.21-.59-.49-1.34-3.92-10.84L394,407a23.21,23.21,0,0,1-2.23,11.67,15.72,15.72,0,0,1-8.84,8.13,12.53,12.53,0,0,1-6.15.44,17.29,17.29,0,0,1-5.66-2,15.14,15.14,0,0,1-4.53-4.05,20.18,20.18,0,0,1-2.67-5.33l-.44-1.36c-.15-.47-.28-1-.4-1.44a22.56,22.56,0,0,1-.49-3,20.26,20.26,0,0,1,.34-6c.09-.49.25-1,.37-1.46l.42-1.37a19.13,19.13,0,0,1,1.17-2.8,13.11,13.11,0,0,1,4.11-4.74,13.43,13.43,0,0,1,11.77-1.8,12.28,12.28,0,0,1,5,3.16,12.5,12.5,0,0,1,2.9,4.91.21.21,0,0,1-.13.25A.21.21,0,0,1,388.33,400.1Z"/><text/></g></svg>