<svg xmlns="http://www.w3.org/2000/svg" viewBox="0 0 377.32 118.84"><defs><style>.cls-1{fill:#5aa67f;stroke:#3c3c3b;stroke-miterlimit:10;stroke-width:0.75px;fill-rule:evenodd;}.cls-11,.cls-12,.cls-2{font-size:48px;font-family:Chalkboard;}.cls-11,.cls-12,.cls-13,.cls-2{fill:#3c3c3b;}.cls-2{letter-spacing:-0.18em;}.cls-3{letter-spacing:-0.16em;}.cls-4{letter-spacing:-0.1em;}.cls-5{letter-spacing:-0.11em;}.cls-6{letter-spacing:-0.1em;}.cls-7{letter-spacing:-0.14em;}.cls-8{letter-spacing:-0.1em;}.cls-9{letter-spacing:-0.14em;}.cls-10{letter-spacing:-0.1em;}.cls-11{letter-spacing:-0.09em;}.cls-12{letter-spacing:-0.11em;}</style></defs><g id="Ebene_2" data-name="Ebene 2"><g id="Ebene_2-2" data-name="Ebene 2"><path class="cls-1" d="M265.19,57.6c-7.39,0-13.4,6.51-13.4,14.5s6,14.5,13.4,14.5a12.07,12.07,0,0,0,2.64-.29c-.33-.16-.39-1.51,0-2.26s1.55-3,.38-3.72-.84-1-1.55-1.89-.42-1-.48-1.2c-.15-.7.69-1.84.75-1.95a1.94,1.94,0,0,0,0-.68c0-.17-.52-.46-.65-.48s-.21.23-.39.27-1-.52-1.12-.68-.27-.48-.52-.71-.27-.06-.63-.22-1.53-.65-2.45-1a1.35,1.35,0,0,1-1-1.37c0-.41-.58-1-.81-1.38s-.3-1-.38-.85.48,1.61.38,1.68-.3-.42-.57-.79.27-.19-.58-2,.27-2.69.33-3.62.73.35.36-.27,0-1.85-.27-2.3-1.68.51-1.68.51c0-.45,1.32-1.2,2.22-1.9s1.49-.13,2.22.1.78.19.54-.1.11-.35.68-.27.73.85,1.59.75.1.18.21.45-.11.23-.72.62,0,.46,1,1.27.72-.52.59-1.14.75-.13.75-.13c.63.46.51,0,.95.17a9.17,9.17,0,0,1,1.74,1.32c-1.58.92-.59,1-.32,1.23s-.54.62-.54.62c-.32-.35-.36,0-.57.16s0,.46,0,.46c-1.07.19-.84,1.43-.8,1.72s-.73.74-.9,1.2.48,1.33.11,1.37-.65-1.37-2.5-.85a1.54,1.54,0,0,0-1.13,2.23c.69,1.43,1.76-.39,2.12-.18s-.11,1.1,0,1.14a1.17,1.17,0,0,1,1.07,1.26c.06,1.22,1.48,1.1,1.76,1.14s1.34-.91,1.48-.93.72-.58,2,.18,1.87.65,2.29,1,.16,1,.54,1.2,2-.06,2.45.64-1.69,4.33-2.34,4.72-.91,1.33-1.6,1.91a22.48,22.48,0,0,1-2.43,1.88c-.79.48-.9,1.37-1.27,1.66,6-1.45,10.49-7.25,10.49-14.17,0-8-6-14.5-13.39-14.5Zm3.13,13.59c-.17.06-.53.46-1.49-.16a3.81,3.81,0,0,0-1.64-.58s-.1-.23.32-.29c.84-.11,1.88.84,2.12.84s.37-.26.79-.1S268.51,71.17,268.32,71.19Zm-4.4-12.14c-.09-.06.06-.16.18-.29s0-.23.09-.29c.21-.23,1.17-.52,1,.06A1.14,1.14,0,0,1,263.92,59.05Zm2.36,1.85c-.37,0-1.11-.11-1-.29.57-.58-.17-.79-.65-.79s-.65-.33-.42-.39a3.14,3.14,0,0,1,1.34.16c.15.13,1,.52,1.05.79S266.6,60.9,266.28,60.9Zm2.81-.11c-.27.19-1.59-.85-1.82-1.07-1.07-1-1.7-.65-1.91-.85s-.16-.4.21-.71,1.32.13,1.91.19,1.26.56,1.26,1.14.63,1,.37,1.3Z"/><text class="cls-2" transform="translate(0 89.43)">T<tspan class="cls-3" x="18.79" y="0">r</tspan><tspan class="cls-4" x="31.91" y="0">a</tspan><tspan class="cls-5" x="52.72" y="0">v</tspan><tspan class="cls-6" x="69.97" y="0">el </tspan><tspan class="cls-7" x="113.88" y="0">l</tspan><tspan class="cls-8" x="121.48" y="0">i</tspan><tspan class="cls-9" x="128.77" y="0">k</tspan><tspan class="cls-10" x="147.61" y="0" xml:space="preserve">e         </tspan></text><text class="cls-11" transform="translate(290.97 89.43) scale(1 1.16)">P</text><text class="cls-12" transform="translate(314.54 89.43)">r<tspan class="cls-10" x="15.61" y="0">o</tspan></text><path class="cls-13" d="M188.07,37.12a67.25,67.25,0,0,0-4.19,16.44,64.38,64.38,0,0,0,5.17,32.36c4.11,8.66,14.23,21.25,25,16.62,4.43-2.19,8.54-5.68,9.19-10.79.28-1.49.24-3.06,1.19-4.57a3.39,3.39,0,0,1,3.7-1.43,4.48,4.48,0,0,1,2.76,2.75,25.36,25.36,0,0,0,5.56,9.08c3.33,3.54,8,3.77,12.31,1.42l-.43,4.32c-4.65-4.67-9.24-9.43-13.63-14.37q-2.2-2.46-4.32-5a.3.3,0,0,1,.4-.44c7.35,4.89,14.31,10.32,21.16,15.85l2.8,2.26-3.23,2.06c-11.9,7.81-22.59-.75-26.18-12.71l-.1-.25s0,0,0,0a2.37,2.37,0,0,0,1.3.84,2.55,2.55,0,0,0,2.94-1.22c-.64,2.27-1,5.13-2.43,7.38-4.23,6.93-13.55,11.23-21.28,8-7.09-3-11.93-8.93-16.76-14.6s-8.7-12.64-9.91-20.18c-2-11.82.69-24.9,8.46-34.13a.31.31,0,0,1,.52.31Z"/><path class="cls-13" d="M190.63,92.92c-3.22-1-6.18-2.19-9.14-3.28-3.41-1.09-6.46-3-8.3-1.84-5.17,3-10.49,7.25-12.56,13.07l-1.15-1.39A30.93,30.93,0,0,0,147,91.24c-4.42-1.18-9.09,0-13.37,1.68l.27-5.07c2.21,1.71,4.4,3.47,6.49,5.36,8.58,7.89,8.34,8-2.19,3.35-3.89-1.72-8.06-4.11-11.81-6.15L131,87.7c13-7.45,23.49-1.4,30.21,10.6l-1.77.15c.5-.85,1-1.44,1.47-2.14,1.43-1.93,2.92-4,4.17-6.12,3.42-5.52,6.92-10.54,14-7A33.2,33.2,0,0,1,191,92.43a.32.32,0,0,1-.35.49Z"/><path class="cls-13" d="M221.31,62.38c-.6,2.06-.35,4.58,1.55,5.76a3.89,3.89,0,0,0,1.91.71c.15,0,.27-.07.1,0a.58.58,0,0,0-.26.21c-.06.09-.06.1-.07.08a17.51,17.51,0,0,1-.57-2.55,2.49,2.49,0,0,1,1-2.19c1.4-1,3.22-.07,4.36.48A44.46,44.46,0,0,0,239,68.77l-3,1.88c.63-5.13-3.78-9.37-8.6-10.19a15.69,15.69,0,0,0-6.85.59c-2.29-9.82-9.28-15.37-20.91-15.26-9.48-.36-19.06-.1-28.51-1.2-6-.32-12,.07-18-.71a31.64,31.64,0,0,1-3.3-.57,2.57,2.57,0,0,1-1.27-.68,1.54,1.54,0,0,1,.38-2.3,6.89,6.89,0,0,1,1.77-.61c3-.57,5.9-1.42,8.82-2.14,3.52-.71,7.09-1.17,10.65-1.69l7.12-1a17.27,17.27,0,0,1,7.23,0,.3.3,0,0,1,.07.55,25.32,25.32,0,0,1-3.43,1.45c-2.43.37-8.07,1.26-10.57,1.6-4.72.6-9.29,2-14,2.55a22.47,22.47,0,0,0-6.08,1.68,1.33,1.33,0,0,0-.07-2.18c6.79-.07,14,.49,20.75.6a122.5,122.5,0,0,1,14.34,0c7.29.5,14.48.68,21.68,2.44C215,45.49,219.72,52,222.78,59l.08.44L221,58.14c6.41-2.86,15.53-1,18.72,5.78,1.61,3.24,1.06,6.86.37,10.18A46,46,0,0,1,230.64,70c-1.39-.8-3.23-2.08-4.29-2.73a1.13,1.13,0,0,0,.48-.2.91.91,0,0,0,.35-.51s0-.06,0-.09a.1.1,0,0,0,0,0c-.11.59.34,1.92.16,2.84a2.32,2.32,0,0,1-2.89,2,5.94,5.94,0,0,1-4.65-5.46,7.14,7.14,0,0,1,1-3.75.28.28,0,0,1,.38-.11.29.29,0,0,1,.13.34Z"/><path class="cls-13" d="M198.53,2.13c-7.73-1-16.62.88-22.36,6.22-4.45,4.56-5.18,12.1-2.26,17.75,2,3.69,5.73,5.72,9.36,7.63a26.9,26.9,0,0,0,23.26,1c3.33-1.41,6.87-3.42,8.47-6.72,3.62-7.71-7.55-16.79-13.15-21a44.68,44.68,0,0,0-7.25-4,.2.2,0,0,1,.12-.38c9.19,1.6,20.13,8.78,24.19,17.38,4.68,10.73-6.09,17.71-15.31,19.42-7.3,1.65-14.78-.82-21-4.54C179,32.75,175,30.61,172.52,27c-6.77-10-2.9-22.3,9-25.61a24.27,24.27,0,0,1,17.08.37.21.21,0,0,1-.11.39Z"/><path class="cls-13" d="M177.79,13.06a28.92,28.92,0,0,0,3.62,4.69,19,19,0,0,0,7.33,3.91c2.59.31,6,.42,7-2.61.7-.73.4,1.41.22,1.73-1.18,3-4.84,3.31-7.55,2.94-2.19-.29-4.64-.46-6.43-2-2.54-2.11-4.6-5.25-4.63-8.58a.22.22,0,0,1,.4-.12Z"/><path class="cls-13" d="M187.14,6.3c.27.72.61,1.55-.15,1.85l-.36.3c-.44.31-.3.48-.51.8-.51.21-1-.07-1.66-.39a2.43,2.43,0,0,1-.58-1.28c0-.27,0-.5.06-.61.33-.2.5,0,.82-.48l.32-.34c.09-.12.14-.3.28-.37a2,2,0,0,1,1.78.52Z"/><path class="cls-13" d="M193,8.84c.3.58.67,1.2.42,1.68a2.42,2.42,0,0,1-.79.74c.41,1-1.41.79-2.05.24-.54-.76-1-1.91-.06-1.86a2.73,2.73,0,0,1,.52-1c.08-.15.34-.18.63-.19s1,0,1.33.35Z"/><path class="cls-13" d="M218.52,27.28c11-5.87,23-9.2,34.57-13.72l2.75-1.07a72.53,72.53,0,0,0,3,21.49c.76,3,1.47,6.05,2.29,9.1s1.72,6.11,2.53,9.33a.27.27,0,0,1-.19.32.28.28,0,0,1-.25-.07,36.71,36.71,0,0,1-5.79-8.1c-4.94-8.78-5.61-19.17-5.67-29l2.82,2c-2.93,1-5.85,2.07-8.74,3.19a172.91,172.91,0,0,1-26.43,8.91,1.24,1.24,0,0,1-.85-2.3Z"/><path class="cls-13" d="M148.86,51.48c0-.24-.21-.92,0-1.07l.3-.16c6.26-3.44,13.48-4.32,20-7.06,6.81-2.69,13.59-5.45,20.89-6.61a1.23,1.23,0,0,1,.76,2.29c-6.51,3.48-13.58,5.37-20.64,7.33-6.21,1.6-11.9,4.72-18.18,6.09-.59.12-1.78.34-2.38.42-.11.07-.34-.3-.41-.4a2.9,2.9,0,0,1-.36-.83Z"/><path class="cls-13" d="M274.73,60c-4.15-7.86-15.65-8.69-19.72-.51a27.46,27.46,0,0,0-1.67,4.66c-1.53,5.93-.41,14.13,5,17.88,2.81,1.58,6.37,2.31,9.17,1.22,6.16-2.29,8.87-9.77,8.39-16a2.4,2.4,0,0,1,4.68-.9l2,5.43,1.91,5.48c.21.67.64,1.89.78,2.57a2.59,2.59,0,0,1-4.86,1.6A71.53,71.53,0,0,1,275,60.66a62.05,62.05,0,0,1-.13-11.8,1.12,1.12,0,0,1,2.24,0,106.89,106.89,0,0,0,1.73,11.22,102.61,102.61,0,0,0,6,18.74,2.57,2.57,0,0,0-4.65,1.85c-1-3-3.05-9.32-4.15-12.79l4.67-.89c.61,13.37-10.78,25.85-24.08,17.79-5.4-3.25-7.75-9.69-8.32-15.66a20.9,20.9,0,0,1,1.41-9,14.64,14.64,0,0,1,5.71-7.55c5.38-3.52,13-2.77,17.09,2.09a12.57,12.57,0,0,1,2.67,5.11.26.26,0,0,1-.47.19Z"/><text/></g></g></svg>